<svg width="36" height="35" viewBox="0 0 36 35" fill="none" xmlns="http://www.w3.org/2000/svg">
<path d="M5.92188 5.7583H30.0763V29.2417H5.92188V5.7583Z" fill="white"/>
<path fill-rule="evenodd" clip-rule="evenodd" d="M29.4761 6.34176H6.52201V28.6583H29.4761V6.34176ZM5.92188 5.7583V29.2417H30.0763V5.7583H5.92188Z" fill="#05060F"/>
<path d="M4.87305 4.73724H7.42349V7.21684H4.87305V4.73724Z" fill="white"/>
<path fill-rule="evenodd" clip-rule="evenodd" d="M6.82341 5.32068H5.47316V6.63343H6.82341V5.32068ZM4.87305 4.73724V7.21684H7.42349V4.73724H4.87305Z" fill="#05060F"/>
<path d="M4.87305 27.7831H7.42349V30.2627H4.87305V27.7831Z" fill="white"/>
<path fill-rule="evenodd" clip-rule="evenodd" d="M6.82341 28.3665H5.47316V29.6793H6.82341V28.3665ZM4.87305 27.7831V30.2627H7.42349V27.7831H4.87305Z" fill="#05060F"/>
<path d="M28.5762 4.73724H31.1266V7.21684H28.5762V4.73724Z" fill="white"/>
<path fill-rule="evenodd" clip-rule="evenodd" d="M30.5265 5.32068H29.1762V6.63343H30.5265V5.32068ZM28.5762 4.73724V7.21684H31.1266V4.73724H28.5762Z" fill="#05060F"/>
<path d="M28.5762 27.7831H31.1266V30.2627H28.5762V27.7831Z" fill="white"/>
<path fill-rule="evenodd" clip-rule="evenodd" d="M30.5265 28.3665H29.1762V29.6793H30.5265V28.3665ZM28.5762 27.7831V30.2627H31.1266V27.7831H28.5762Z" fill="#05060F"/>
<path fill-rule="evenodd" clip-rule="evenodd" d="M14.7767 21.2879C14.6832 21.197 14.6465 21.0646 14.6803 20.9404L15.9031 16.4425C15.9049 16.436 15.9068 16.4296 15.909 16.4233C16.0187 16.0946 16.2596 15.8225 16.5774 15.668L16.5836 15.665L18.3675 14.8377C18.4452 14.8003 18.5268 14.7755 18.6094 14.7626C18.6494 14.6131 18.7322 14.4737 18.8458 14.3633L19.0854 14.1304C19.417 13.808 19.9545 13.808 20.286 14.1304L22.2035 15.9946C22.535 16.3169 22.535 16.8395 22.2035 17.1618L21.9638 17.3948C21.849 17.5065 21.7044 17.5865 21.5498 17.6244C21.5349 17.7128 21.5051 17.7999 21.4597 17.882L20.5575 19.5648L20.5546 19.5702C20.3923 19.8607 20.1217 20.0795 19.7983 20.1816C19.7918 20.1836 19.7852 20.1855 19.7786 20.1872L15.1342 21.3816C15.0064 21.4145 14.8702 21.3788 14.7767 21.2879ZM20.787 17.4181C20.8203 17.4505 20.8278 17.5004 20.8053 17.5406L20.8024 17.5459L19.9006 19.2281C19.8304 19.3522 19.7152 19.4463 19.5775 19.4921L16.2756 20.3413L17.5822 19.071C18.0836 19.3379 18.6653 19.2043 19.0065 18.8725C19.4885 18.4039 19.4885 17.6443 19.0065 17.1757C18.5246 16.7071 17.7431 16.7071 17.2612 17.1757C16.9171 17.5102 16.8055 18.0851 17.06 18.5575L15.75 19.8311L16.6181 16.6379C16.6674 16.4979 16.771 16.382 16.9069 16.315L18.6899 15.4881L18.696 15.4852C18.737 15.4653 18.7864 15.4731 18.8188 15.5046L20.787 17.4181ZM19.3439 14.9941L21.3122 16.9076C21.3228 16.918 21.331 16.922 21.3361 16.9239C21.3415 16.9259 21.3479 16.9271 21.3563 16.9267C21.3731 16.9259 21.4047 16.9173 21.4387 16.8843L21.6784 16.6513C21.7199 16.6109 21.7199 16.5454 21.6784 16.5051L19.7609 14.6409C19.7194 14.6005 19.6521 14.6005 19.6105 14.6409L19.3709 14.8739C19.3352 14.9085 19.3265 14.9398 19.3256 14.955C19.3252 14.9624 19.3263 14.9678 19.3279 14.9721C19.3295 14.9762 19.3333 14.9838 19.3439 14.9941ZM17.8082 18.3407C18.0336 18.5599 18.3249 18.5142 18.4814 18.362C18.6733 18.1754 18.6733 17.8728 18.4814 17.6862C18.2894 17.4996 17.9783 17.4996 17.7863 17.6862C17.6376 17.8308 17.6013 18.1396 17.8082 18.3407Z" fill="#05060F"/>
</svg>
