<svg width="17" height="10" viewBox="0 0 17 10" fill="none" xmlns="http://www.w3.org/2000/svg">
<path d="M0.674805 4.38562C0.322141 4.38562 0.0362505 4.67151 0.0362505 5.02417C0.0362505 5.37683 0.322141 5.66272 0.674805 5.66272L0.674805 4.38562ZM16.4516 5.4757C16.701 5.22633 16.701 4.82201 16.4516 4.57264L12.3879 0.50891C12.1385 0.259539 11.7342 0.259539 11.4848 0.50891C11.2355 0.758281 11.2355 1.16259 11.4848 1.41196L15.0971 5.02417L11.4848 8.63638C11.2355 8.88575 11.2355 9.29006 11.4848 9.53943C11.7342 9.7888 12.1385 9.7888 12.3879 9.53943L16.4516 5.4757ZM0.674805 5.66272L16.0001 5.66272V4.38562L0.674805 4.38562L0.674805 5.66272Z" fill="black"/>
</svg>
