<svg width="30" height="30" viewBox="0 0 30 30" fill="none" xmlns="http://www.w3.org/2000/svg">
<path d="M13.2523 3.75H16.9695V20.7834C15.3828 21.1091 13.7678 21.2771 12.148 21.285C7.60859 21.2803 5.24609 19.2525 5.24609 15.3581C5.24609 11.6081 7.75203 9.17062 11.6361 9.17062C12.1808 9.16 12.7245 9.22307 13.2523 9.35812V3.75ZM13.2523 12.3206C12.8482 12.1873 12.4243 12.1239 11.9989 12.1331C10.1239 12.1331 9.03359 13.2797 9.03359 15.2887C9.03359 17.2453 10.0714 18.3253 11.9755 18.3253C12.4028 18.3252 12.8296 18.2939 13.2523 18.2316V12.3253V12.3206Z" fill="#44B78B"/>
<path d="M22.8744 9.4303V17.9615C22.8744 20.8987 22.6541 22.3106 22.0091 23.5284C21.3508 24.7667 20.2744 25.7311 18.9716 26.25L15.5234 24.6253C16.7761 24.1963 17.8253 23.3182 18.4681 22.1606C18.9988 21.1097 19.1666 19.8919 19.1666 16.6884V9.4303H22.8744Z" fill="#44B78B"/>
<path d="M22.8803 3.7688H19.1641V7.54505H22.8803V3.7688Z" fill="#44B78B"/>
</svg>
