<svg width="24" height="30" viewBox="0 0 24 30" fill="none" xmlns="http://www.w3.org/2000/svg">
<path fill-rule="evenodd" clip-rule="evenodd" d="M12 29.3707C8.8174 29.3707 5.76515 28.2876 3.51472 26.3598C1.26428 24.432 0 21.8173 0 19.0909C0 16.3646 1.26428 13.7499 3.51472 11.8221C5.76515 9.89424 8.8174 8.8112 12 8.8112C15.1826 8.8112 18.2348 9.89424 20.4853 11.8221C22.7357 13.7499 24 16.3646 24 19.0909C24 21.8173 22.7357 24.432 20.4853 26.3598C18.2348 28.2876 15.1826 29.3707 12 29.3707ZM12 26.4336C14.2733 26.4336 16.4535 25.66 18.0609 24.283C19.6684 22.906 20.5714 21.0383 20.5714 19.0909C20.5714 17.1435 19.6684 15.2759 18.0609 13.8989C16.4535 12.5219 14.2733 11.7483 12 11.7483C9.72672 11.7483 7.54654 12.5219 5.93909 13.8989C4.33163 15.2759 3.42857 17.1435 3.42857 19.0909C3.42857 21.0383 4.33163 22.906 5.93909 24.283C7.54654 25.66 9.72672 26.4336 12 26.4336ZM12 8.8112C11.5453 8.8112 11.1093 8.65648 10.7878 8.38108C10.4663 8.10567 10.2857 7.73215 10.2857 7.34267C10.2857 6.95319 10.4663 6.57966 10.7878 6.30426C11.1093 6.02885 11.5453 5.87413 12 5.87413C12.4547 5.87413 12.8907 6.02885 13.2122 6.30426C13.5337 6.57966 13.7143 6.95319 13.7143 7.34267C13.7143 7.73215 13.5337 8.10567 13.2122 8.38108C12.8907 8.65648 12.4547 8.8112 12 8.8112ZM6.85714 0H10.2857V5.87413C8.4 5.87413 6.85714 4.55245 6.85714 2.93707V0ZM13.7143 0H17.1429V2.93707C17.1429 4.55245 15.6 5.87413 13.7143 5.87413V0Z" fill="#BF8D5C"/>
</svg>
