<svg width="24" height="35" viewBox="0 0 24 35" fill="none" xmlns="http://www.w3.org/2000/svg">
<path fill-rule="evenodd" clip-rule="evenodd" d="M12 34.2857C8.8174 34.2857 5.76515 33.0214 3.51472 30.771C1.26428 28.5206 0 25.4683 0 22.2857C0 19.1031 1.26428 16.0509 3.51472 13.8004C5.76515 11.55 8.8174 10.2857 12 10.2857C15.1826 10.2857 18.2348 11.55 20.4853 13.8004C22.7357 16.0509 24 19.1031 24 22.2857C24 25.4683 22.7357 28.5206 20.4853 30.771C18.2348 33.0214 15.1826 34.2857 12 34.2857ZM12 30.8571C14.2733 30.8571 16.4535 29.9541 18.0609 28.3466C19.6684 26.7392 20.5714 24.559 20.5714 22.2857C20.5714 20.0124 19.6684 17.8323 18.0609 16.2248C16.4535 14.6173 14.2733 13.7143 12 13.7143C9.72672 13.7143 7.54654 14.6173 5.93909 16.2248C4.33163 17.8323 3.42857 20.0124 3.42857 22.2857C3.42857 24.559 4.33163 26.7392 5.93909 28.3466C7.54654 29.9541 9.72672 30.8571 12 30.8571ZM12 10.2857C11.5453 10.2857 11.1093 10.1051 10.7878 9.78361C10.4663 9.46212 10.2857 9.02608 10.2857 8.57143C10.2857 8.11677 10.4663 7.68074 10.7878 7.35925C11.1093 7.03775 11.5453 6.85714 12 6.85714C12.4547 6.85714 12.8907 7.03775 13.2122 7.35925C13.5337 7.68074 13.7143 8.11677 13.7143 8.57143C13.7143 9.02608 13.5337 9.46212 13.2122 9.78361C12.8907 10.1051 12.4547 10.2857 12 10.2857ZM6.85714 0H10.2857V6.85714C8.4 6.85714 6.85714 5.31429 6.85714 3.42857V0ZM13.7143 0H17.1429V3.42857C17.1429 5.31429 15.6 6.85714 13.7143 6.85714V0Z" fill="#5E59EE"/>
</svg>
