<svg width="32" height="33" viewBox="0 0 32 33" fill="none" xmlns="http://www.w3.org/2000/svg">
<ellipse cx="16" cy="16.607" rx="16" ry="16.1197" fill="#F8F4F1"/>
<path d="M16.1606 9.19189C12.0062 9.19189 8.64062 12.5831 8.64062 16.7681C8.64062 20.9532 12.0067 24.3444 16.1606 24.3444C20.3151 24.3444 23.6806 20.9532 23.6806 16.7681C23.6806 12.5831 20.3146 9.19189 16.1606 9.19189ZM19.8542 14.3824L18.6199 20.242C18.5287 20.6574 18.2832 20.7581 17.9407 20.5626L16.0607 19.1666L15.1539 20.0464C15.054 20.1471 14.9691 20.2327 14.775 20.2327L14.9084 18.3049L18.3924 15.1336C18.5442 14.9992 18.3589 14.923 18.1585 15.0574L13.8527 17.7882L11.997 17.2046C11.5938 17.0766 11.5846 16.7984 12.0819 16.6029L19.3321 13.786C19.6688 13.6638 19.9628 13.8686 19.8537 14.3819L19.8542 14.3824Z" fill="black"/>
</svg>
