<svg width="30" height="30" viewBox="0 0 30 30" fill="none" xmlns="http://www.w3.org/2000/svg">
<path d="M4.56367 4.21247C10.4909 -1.54039 19.9683 -1.38574 25.7103 4.58362C26.3586 3.7176 26.9143 2.75879 27.3156 1.76905C29.1987 7.52191 30.3409 12.3469 29.9087 16.0893C29.6926 19.2441 28.4578 22.2752 26.4203 24.6877C21.1105 30.9973 11.664 31.8015 5.36631 26.4816L5.24583 26.3742L5.23943 26.37C5.2197 26.3562 5.20025 26.3419 5.18109 26.327C5.1236 26.2822 5.0714 26.2334 5.02449 26.1813L5.00759 26.1621L4.81063 25.9867C4.61855 25.8218 4.42646 25.6568 4.25606 25.4701L4.19322 25.3991C-1.54879 19.4606 -1.36356 9.96533 4.56367 4.21247ZM6.78638 24.3475C6.2307 23.9145 5.42805 23.9763 4.99586 24.5331C4.61583 25.0226 4.6177 25.7034 5.00148 26.155L5.00759 26.1621L5.24583 26.3742L5.26921 26.3902C5.80881 26.7457 6.53481 26.6722 6.94892 26.1697L6.9716 26.1414C7.4038 25.5847 7.31118 24.7805 6.78638 24.3475ZM27.1612 3.31552C25.6177 6.5631 21.7897 9.03745 18.4865 9.81068C15.3685 10.553 12.6519 9.9344 9.78086 11.0479C3.23622 13.5531 3.3597 21.3473 6.94073 23.1103L7.15683 23.234C7.15683 23.234 9.74351 22.7187 12.3014 22.0383L12.5206 21.9795C13.5422 21.7037 14.5473 21.403 15.3685 21.0999C19.6287 19.5225 24.3211 15.6254 25.8646 11.1097C25.062 15.811 21.0179 20.3576 16.9738 22.4299C14.8128 23.5433 13.1458 23.7907 9.59564 25.0279C9.16344 25.1826 8.82386 25.3372 8.82386 25.3372C8.86718 25.3312 8.9105 25.3254 8.95372 25.3197L9.03999 25.3085L9.12581 25.2977C9.90986 25.2003 10.6144 25.1516 10.6144 25.1516C15.6463 24.9042 23.5493 26.5744 27.223 21.6566C30.9892 16.6461 28.89 8.54258 27.1612 3.31552Z" fill="#6DB33F"/>
<path d="M6.78618 24.3475C7.31099 24.7805 7.4036 25.5847 6.97141 26.1414C6.53921 26.6981 5.73657 26.76 5.18089 26.327C4.62521 25.894 4.56347 25.0898 4.99567 24.5331C5.42786 23.9764 6.2305 23.9145 6.78618 24.3475ZM27.161 3.31555C28.8898 8.54261 30.989 16.6461 27.2228 21.6567C23.5491 26.5744 15.6462 24.9042 10.6142 25.1517C10.6142 25.1517 9.90967 25.2004 9.12561 25.2977L9.03979 25.3085C8.96806 25.3177 8.89586 25.3273 8.82367 25.3373C8.82367 25.3373 9.16325 25.1826 9.59544 25.028C13.1456 23.7908 14.8126 23.5433 16.9736 22.4299C21.0177 20.3576 25.0618 15.811 25.8644 11.1097C24.3209 15.6254 19.6285 19.5225 15.3683 21.0999C12.4356 22.1825 7.15663 23.2341 7.15663 23.2341L6.94054 23.1103C3.3595 21.3474 3.23602 13.5532 9.78067 11.0479C12.6517 9.93443 15.3683 10.553 18.4863 9.81072C21.7895 9.03748 25.6175 6.56313 27.161 3.31555Z" fill="white"/>
</svg>
