<svg width="32" height="33" viewBox="0 0 32 33" fill="none" xmlns="http://www.w3.org/2000/svg">
<ellipse cx="16" cy="16.607" rx="16" ry="16.1197" fill="#F8F4F1"/>
<path d="M19.6314 8.86963H12.6899C11.6163 8.87081 10.587 9.31014 9.82789 10.0912C9.06876 10.8723 8.64177 11.9313 8.64062 13.0359V20.1782C8.64177 21.2828 9.06876 22.3418 9.82789 23.1229C10.587 23.904 11.6163 24.3433 12.6899 24.3445H19.6314C20.705 24.3433 21.7342 23.904 22.4934 23.1229C23.2525 22.3418 23.6795 21.2828 23.6806 20.1782V13.0359C23.6795 11.9313 23.2525 10.8723 22.4934 10.0912C21.7342 9.31014 20.705 8.87081 19.6314 8.86963ZM16.1606 20.1782C15.4742 20.1782 14.8031 19.9687 14.2324 19.5763C13.6616 19.1839 13.2167 18.6262 12.9541 17.9737C12.6914 17.3211 12.6226 16.6031 12.7565 15.9104C12.8905 15.2176 13.221 14.5813 13.7064 14.0819C14.1918 13.5825 14.8102 13.2424 15.4835 13.1046C16.1568 12.9668 16.8546 13.0375 17.4888 13.3078C18.123 13.5781 18.6651 14.0358 19.0465 14.6231C19.4278 15.2103 19.6314 15.9008 19.6314 16.6071C19.6304 17.5539 19.2645 18.4616 18.6138 19.1311C17.9631 19.8006 17.0808 20.1772 16.1606 20.1782ZM20.4991 13.0359C20.3275 13.0359 20.1597 12.9836 20.017 12.8855C19.8743 12.7874 19.7631 12.6479 19.6974 12.4848C19.6318 12.3217 19.6146 12.1422 19.6481 11.969C19.6815 11.7958 19.7642 11.6367 19.8855 11.5119C20.0069 11.387 20.1615 11.302 20.3298 11.2675C20.4981 11.2331 20.6726 11.2508 20.8311 11.3183C20.9897 11.3859 21.1252 11.5003 21.2205 11.6472C21.3159 11.794 21.3668 11.9666 21.3668 12.1432C21.3668 12.3799 21.2754 12.607 21.1126 12.7745C20.9499 12.9419 20.7292 13.0359 20.4991 13.0359ZM18.4745 16.6071C18.4745 17.0779 18.3388 17.5382 18.0845 17.9297C17.8303 18.3212 17.4689 18.6264 17.0461 18.8066C16.6233 18.9868 16.1581 19.0339 15.7092 18.9421C15.2604 18.8502 14.8481 18.6235 14.5245 18.2905C14.2009 17.9576 13.9805 17.5333 13.8912 17.0715C13.802 16.6097 13.8478 16.131 14.0229 15.696C14.198 15.261 14.4946 14.8891 14.8751 14.6275C15.2556 14.3659 15.703 14.2263 16.1606 14.2263C16.7743 14.2263 17.3628 14.4771 17.7968 14.9236C18.2307 15.3701 18.4745 15.9756 18.4745 16.6071Z" fill="black"/>
</svg>
