<svg width="28" height="28" viewBox="0 0 28 28" fill="none" xmlns="http://www.w3.org/2000/svg">
<path d="M1.1582 15.5698C4.02956 15.9111 6.70262 17.2084 8.74727 19.253C10.7919 21.2977 12.0892 23.9707 12.4305 26.8421C13.8539 26.0215 15.0445 24.8514 15.8898 23.4426C16.7351 22.0337 17.2072 20.4326 17.2614 18.7905C19.9654 17.8393 22.3265 16.1077 24.0463 13.8146C25.7661 11.5215 26.7673 8.76996 26.9234 5.90788C26.9234 4.62662 26.4144 3.39785 25.5084 2.49186C24.6024 1.58588 23.3737 1.0769 22.0924 1.0769C19.2303 1.23296 16.4788 2.23419 14.1857 3.95399C11.8926 5.6738 10.161 8.03494 9.20982 10.7388C7.56772 10.7931 5.96656 11.2652 4.5577 12.1105C3.14884 12.9558 1.97881 14.1464 1.1582 15.5698Z" stroke="#6C749D" stroke-width="1.84615" stroke-linecap="round" stroke-linejoin="round"/>
<path d="M5.9891 17.1801C4.31312 18.1263 2.95791 19.5515 2.09719 21.2729C1.23648 22.9943 0.909483 24.9336 1.15812 26.8421C3.06661 27.0907 5.00587 26.7637 6.7273 25.903C8.44873 25.0423 9.87389 23.6871 10.8201 22.0111M17.2614 9.12851C17.2614 9.5556 17.431 9.96519 17.733 10.2672C18.035 10.5692 18.4446 10.7388 18.8717 10.7388C19.2988 10.7388 19.7084 10.5692 20.0104 10.2672C20.3123 9.96519 20.482 9.5556 20.482 9.12851C20.482 8.70143 20.3123 8.29184 20.0104 7.98984C19.7084 7.68785 19.2988 7.51819 18.8717 7.51819C18.4446 7.51819 18.035 7.68785 17.733 7.98984C17.431 8.29184 17.2614 8.70143 17.2614 9.12851Z" stroke="#6C749D" stroke-width="1.84615" stroke-linecap="round" stroke-linejoin="round"/>
</svg>
