<svg width="32" height="33" viewBox="0 0 32 33" fill="none" xmlns="http://www.w3.org/2000/svg">
<ellipse cx="16" cy="16.607" rx="16" ry="16.1197" fill="#F8F4F1"/>
<path d="M8.64364 24.3444L9.66035 20.5805C8.99042 19.4235 8.63845 18.1076 8.64064 16.7681C8.64064 12.5838 12.0073 9.19189 16.1606 9.19189C20.3139 9.19189 23.6806 12.5838 23.6806 16.7681C23.6806 20.9525 20.3139 24.3444 16.1606 24.3444C14.8317 24.3465 13.5261 23.9922 12.3781 23.3178L8.64364 24.3444ZM13.4467 13.2134C13.3496 13.2194 13.2547 13.2452 13.1677 13.2891C13.0861 13.3357 13.0116 13.3938 12.9466 13.4619C12.8563 13.5475 12.8052 13.6217 12.7503 13.6937C12.4724 14.0581 12.3229 14.5054 12.3254 14.965C12.3269 15.3362 12.4232 15.6976 12.5736 16.0355C12.8812 16.7189 13.3873 17.4424 14.0558 18.1129C14.2167 18.2743 14.3739 18.4364 14.5431 18.5872C15.3728 19.3232 16.3616 19.854 17.4308 20.1373L17.8586 20.2032C17.9978 20.2108 18.1369 20.2002 18.2768 20.1933C18.4958 20.182 18.7096 20.1222 18.9032 20.0183C19.0016 19.9672 19.0978 19.9116 19.1912 19.8517C19.1912 19.8517 19.2235 19.8304 19.2852 19.7835C19.3867 19.7077 19.4491 19.6539 19.5333 19.5653C19.5958 19.5001 19.6499 19.4236 19.6913 19.3365C19.7499 19.213 19.8086 18.9774 19.8326 18.7811C19.8507 18.6311 19.8454 18.5493 19.8432 18.4985C19.8402 18.4175 19.7732 18.3334 19.7003 18.2978L19.2626 18.1C19.2626 18.1 18.6084 17.8129 18.2091 17.6295C18.167 17.6111 18.1219 17.6005 18.076 17.5985C18.0245 17.5932 17.9725 17.599 17.9235 17.6156C17.8745 17.6322 17.8295 17.6592 17.7917 17.6947V17.6932C17.788 17.6932 17.7376 17.7364 17.1939 18.4001C17.1627 18.4423 17.1197 18.4742 17.0704 18.4918C17.0211 18.5093 16.9678 18.5117 16.9171 18.4985C16.8681 18.4853 16.8201 18.4686 16.7735 18.4485C16.6803 18.4091 16.6479 18.394 16.584 18.366L16.5802 18.3644C16.15 18.1752 15.7517 17.9196 15.3996 17.6068C15.3049 17.5235 15.2169 17.4326 15.1266 17.3447C14.8308 17.0592 14.5729 16.7363 14.3596 16.384L14.3152 16.312C14.2834 16.2637 14.2576 16.2115 14.2385 16.1567C14.2099 16.0454 14.2844 15.956 14.2844 15.956C14.2844 15.956 14.4671 15.7544 14.5521 15.6453C14.6229 15.5547 14.6889 15.4603 14.7499 15.3627C14.8386 15.2188 14.8664 15.0711 14.8198 14.9567C14.6093 14.4384 14.3912 13.9225 14.1671 13.4103C14.1227 13.3088 13.9911 13.2361 13.8715 13.2217C13.8309 13.2171 13.7903 13.2126 13.7497 13.2096C13.6487 13.2045 13.5475 13.2063 13.4467 13.2134Z" fill="black"/>
</svg>
