<svg width="34" height="39" viewBox="0 0 34 39" fill="none" xmlns="http://www.w3.org/2000/svg">
<path d="M3.09433 34.7042L0 0H34.0005L30.902 34.6987L16.9796 38.5587L3.09433 34.7042Z" fill="#E44F26"/>
<path d="M17 35.609L28.2509 32.4899L30.8976 2.83826H17V35.609Z" fill="#F1662A"/>
<path d="M17.0006 15.7085H11.3683L10.98 11.35H17.0006V7.09338H6.32812L6.43003 8.23637L7.47525 19.9651H17.0006V15.7085ZM17.0006 26.7624L16.9813 26.7679L12.2414 25.4886L11.9384 22.0941H7.66528L8.26157 28.7758L16.9813 31.1967L17.0006 31.1912V26.7624Z" fill="#EBEBEB"/>
<path d="M16.9844 15.7085V19.9651H22.2256L21.7326 25.4859L16.9844 26.7666V31.1953L25.711 28.7758L25.7744 28.0569L26.7741 16.8515L26.8788 15.7085H16.9844ZM16.9844 7.09338V11.35H27.2658L27.3512 10.3943L27.5453 8.23637L27.6472 7.09338H16.9844Z" fill="white"/>
</svg>
