<svg width="110" height="29" viewBox="0 0 110 29" fill="none" xmlns="http://www.w3.org/2000/svg">
<path fill-rule="evenodd" clip-rule="evenodd" d="M10.3177 28.209C14.3326 28.2009 18.5485 28.2299 22.54 28.0696C27.0238 27.8896 29.4757 28.0967 33.1245 26.4878C35.8021 25.3071 37.9184 23.5018 39.3501 21.1876C41.1084 18.3454 41.1165 15.6266 40.8863 11.9299C40.6772 8.57341 39.3959 6.20472 37.3509 4.39059C31.3061 -0.971765 25.756 0.0673064 17.5175 0.112889C14.0604 0.132016 15.0535 -0.0630047 13.2356 1.69881C12.7107 2.20752 10.78 4.07534 10.5453 4.518C15.9329 4.77539 22.0111 4.17462 27.3116 4.63239C37.832 5.54092 38.0705 18.4669 31.2344 22.3727C29.3289 23.4614 26.7347 23.4456 24.0995 23.5123C21.3621 23.5816 18.6258 23.5816 15.8031 23.5816L15.7908 11.364L10.293 11.3575L10.3177 28.209Z" fill="white"/>
<path fill-rule="evenodd" clip-rule="evenodd" d="M77.7393 0.00223119C78.1214 1.11141 80.8618 5.86786 81.6326 7.14143C84.0412 11.1211 87.2165 16.9513 89.6019 21.1834C90.2792 22.3851 90.9414 23.4999 91.6213 24.7034C92.0675 25.4933 92.9795 27.5724 93.6638 28.0384C94.4538 27.8126 95.5039 25.5193 95.919 24.7622C96.6881 23.3592 96.4701 23.7479 95.055 21.1058C92.6583 16.6309 89.6045 11.5209 87.0221 6.98493L83.0921 0L77.7393 0.00223119Z" fill="white"/>
<path fill-rule="evenodd" clip-rule="evenodd" d="M46.3743 16.2811L72.236 16.2674L72.2043 11.674L46.3711 11.7223L46.3743 16.2811Z" fill="white"/>
<path fill-rule="evenodd" clip-rule="evenodd" d="M46.5049 0.0165779C46.9867 0.617307 48.8344 1.7906 49.6097 2.42054C50.2712 2.95804 52.1653 4.6054 53.0631 4.60544C58.8308 4.60544 66.7363 4.75528 72.2367 4.59052L72.204 0.00552368L46.5049 0.0165779Z" fill="white"/>
<path fill-rule="evenodd" clip-rule="evenodd" d="M53.0633 23.4719C52.2889 23.4719 51.7365 24.152 51.2048 24.5162L46.5 28.0598L72.2156 28.0671L72.2108 23.4834C66.3249 23.3727 59.0951 23.4719 53.0633 23.4719Z" fill="white"/>
<path fill-rule="evenodd" clip-rule="evenodd" d="M98.1064 20.9852C98.9359 20.1167 100.447 16.987 101.185 15.7538C102.376 13.7672 109.597 1.19906 109.999 0.00117493L104.54 0.00270115C103.135 3.15552 97.665 11.9836 95.5859 15.8159C95.18 16.5642 95.2415 16.6128 95.689 17.2797C96.3365 18.2446 97.5481 20.5455 98.1064 20.9852Z" fill="white"/>
<path fill-rule="evenodd" clip-rule="evenodd" d="M2.30127 12.9397C-0.033775 15.363 0.0107853 14.7217 0.0217298 16.7889C0.0411867 20.4515 -0.0590079 24.6164 0.0570818 28.2195L5.39578 28.1607L5.3672 9.85419L2.30127 12.9397Z" fill="white"/>
<path fill-rule="evenodd" clip-rule="evenodd" d="M1.99557 0.313742C-1.20812 1.02953 -0.176475 5.45938 3.37028 4.66799C6.61818 3.94323 5.39887 -0.446659 1.99557 0.313742Z" fill="white"/>
</svg>
