<svg width="30" height="30" viewBox="0 0 30 30" fill="none" xmlns="http://www.w3.org/2000/svg">
<path d="M15.0464 7.91308C21.2228 3.11819 18.0529 0 18.0529 0C18.5246 4.95692 12.9495 6.12734 11.455 9.53362C10.4353 11.858 12.1534 13.8931 15.0444 16.4582C14.7888 15.8901 14.3946 15.3381 13.9956 14.7792C12.6344 12.8731 11.2165 10.8874 15.0464 7.91308Z" fill="#E76F00"/>
<path d="M16.0324 17.5097C16.0324 17.5097 17.8906 16.0105 16.4191 14.3445C11.4308 8.69237 21.8747 6.12734 21.8747 6.12734C15.4982 9.19922 16.4502 11.0226 18.0529 13.2377C19.7689 15.6129 16.0324 17.5097 16.0324 17.5097Z" fill="#E76F00"/>
<path d="M21.5037 21.9802C27.2274 19.0554 24.581 16.2448 22.7339 16.6235C22.2811 16.7161 22.0792 16.7964 22.0792 16.7964C22.0792 16.7964 22.2473 16.5375 22.5683 16.4254C26.2226 15.1621 29.033 20.1515 21.3887 22.1276C21.3887 22.1276 21.4773 22.0498 21.5037 21.9802Z" fill="#5382A1"/>
<path d="M9.59363 18.2783C6.01249 17.8081 11.5572 16.513 11.5572 16.513C11.5572 16.513 9.40397 16.3702 6.75574 17.629C3.62435 19.1186 14.5015 19.7961 20.1321 18.3398C20.7174 17.9467 21.5265 17.6061 21.5265 17.6061C21.5265 17.6061 19.2224 18.0107 16.9278 18.2011C14.1201 18.4324 11.1057 18.4775 9.59363 18.2783Z" fill="#5382A1"/>
<path d="M10.9564 21.0711C8.95936 20.868 10.2669 19.9162 10.2669 19.9162C5.09943 21.6027 13.1421 23.5153 20.3628 21.4389C19.5953 21.1729 19.1072 20.6862 19.1072 20.6862C15.5782 21.3545 13.5388 21.3331 10.9564 21.0711Z" fill="#5382A1"/>
<path d="M11.8265 24.0929C9.831 23.8673 10.9968 23.2007 10.9968 23.2007C6.30595 24.4896 13.85 27.1523 19.8222 24.6353C18.844 24.2613 18.1436 23.8295 18.1436 23.8295C15.4795 24.3252 14.2439 24.3641 11.8265 24.0929Z" fill="#5382A1"/>
<path d="M24.3175 25.6301C24.3175 25.6301 25.1802 26.3291 23.3674 26.8699C19.9201 27.8968 9.01962 28.2069 5.99151 26.9108C4.90298 26.4452 6.94428 25.799 7.58639 25.6633C8.25606 25.5205 8.63874 25.5472 8.63874 25.5472C7.42819 24.7086 0.814209 27.1938 5.27917 27.9055C17.4558 29.8474 27.476 27.031 24.3175 25.6301Z" fill="#5382A1"/>
<path d="M26.2502 27.1574C26.0504 29.7138 17.6136 30.2515 12.1196 29.9057C8.53546 29.6797 7.81715 29.1148 7.80664 29.1066C11.2369 29.6627 17.0204 29.7639 21.7097 28.8961C25.8661 28.1265 26.2502 27.1574 26.2502 27.1574Z" fill="#5382A1"/>
</svg>
