<svg width="48" height="48" viewBox="0 0 48 48" fill="none" xmlns="http://www.w3.org/2000/svg">
<path d="M24.0741 12.6609C33.9562 4.98911 28.8844 0 28.8844 0C29.6392 7.93107 20.719 9.80374 18.3279 15.2538C16.6963 18.9727 19.4452 22.229 24.0708 26.3331C23.6619 25.4241 23.0311 24.5409 22.3927 23.6467C20.2149 20.5969 17.9463 17.4198 24.0741 12.6609Z" fill="#E76F00"/>
<path d="M25.6523 28.0155C25.6523 28.0155 28.6253 25.6169 26.2709 22.9512C18.2897 13.9078 35 9.80375 35 9.80375C24.7976 14.7188 26.3207 17.6361 28.8851 21.1803C31.6307 24.9807 25.6523 28.0155 25.6523 28.0155Z" fill="#E76F00"/>
<path d="M34.4057 35.1684C43.5637 30.4887 39.3295 25.9917 36.374 26.5976C35.6495 26.7458 35.3266 26.8743 35.3266 26.8743C35.3266 26.8743 35.5955 26.46 36.1091 26.2806C41.956 24.2593 46.4525 32.2424 34.2217 35.4042C34.2217 35.4042 34.3634 35.2797 34.4057 35.1684Z" fill="#5382A1"/>
<path d="M15.3494 29.2454C9.61959 28.493 18.4912 26.4209 18.4912 26.4209C18.4912 26.4209 15.046 26.1924 10.8088 28.2065C5.79856 30.5898 23.2021 31.6737 32.2109 29.3438C33.1475 28.7148 34.442 28.1697 34.442 28.1697C34.442 28.1697 30.7555 28.8171 27.0841 29.1218C22.5917 29.4918 17.7688 29.564 15.3494 29.2454Z" fill="#5382A1"/>
<path d="M17.53 33.7137C14.3348 33.3888 16.4269 31.8659 16.4269 31.8659C8.15889 34.5644 21.0271 37.6245 32.5803 34.3023C31.3522 33.8766 30.5713 33.098 30.5713 33.098C24.9249 34.1672 21.6619 34.133 17.53 33.7137Z" fill="#5382A1"/>
<path d="M18.922 38.5486C15.7292 38.1877 17.5945 37.1211 17.5945 37.1211C10.0891 39.1833 22.1596 43.4437 31.7152 39.4165C30.1501 38.818 29.0294 38.1271 29.0294 38.1271C24.7669 38.9203 22.7899 38.9826 18.922 38.5486Z" fill="#5382A1"/>
<path d="M38.9081 41.0082C38.9081 41.0082 40.2883 42.1266 37.3878 42.9918C31.8721 44.6349 14.4314 45.1311 9.58641 43.0573C7.84476 42.3123 11.1108 41.2783 12.1382 41.0613C13.2097 40.8328 13.822 40.8754 13.822 40.8754C11.8851 39.5337 1.30273 43.51 8.44667 44.6488C27.9293 47.7558 43.9615 43.2496 38.9081 41.0082Z" fill="#5382A1"/>
<path d="M41.9999 43.4519C41.6802 47.5421 28.1814 48.4025 19.391 47.8491C13.6563 47.4875 12.507 46.5837 12.4902 46.5705C17.9787 47.4603 27.2322 47.6223 34.7351 46.2338C41.3853 45.0024 41.9999 43.4519 41.9999 43.4519Z" fill="#5382A1"/>
</svg>
