<svg width="34" height="34" viewBox="0 0 34 34" fill="none" xmlns="http://www.w3.org/2000/svg">
<path d="M0 0H33.5834V33.5834H0V0Z" fill="#F5DE19"/>
<path d="M22.5594 26.2371C22.8455 26.8184 23.2901 27.3069 23.8418 27.6464C24.3936 27.986 25.03 28.1627 25.6779 28.1562C26.9852 28.1562 27.8212 27.5025 27.8212 26.597C27.8212 25.5175 26.9624 25.1313 25.5231 24.5016L24.7339 24.1634C22.4551 23.193 20.9438 21.978 20.9438 19.4089C20.9438 17.0425 22.7429 15.2398 25.5651 15.2398C26.4787 15.1738 27.3915 15.3783 28.1896 15.8277C28.9878 16.2771 29.636 16.9516 30.0533 17.7669L27.5861 19.3441C27.4254 18.9399 27.1456 18.594 26.7838 18.3523C26.422 18.1107 25.9953 17.9848 25.5603 17.9912C25.3705 17.9722 25.1789 17.993 24.9975 18.0521C24.8162 18.1113 24.6492 18.2076 24.5071 18.3349C24.365 18.4621 24.2511 18.6176 24.1724 18.7914C24.0937 18.9652 24.0521 19.1534 24.0503 19.3441C24.0503 20.2905 24.6368 20.6743 25.9909 21.2632L26.7801 21.6014C29.462 22.7517 30.978 23.9235 30.978 26.5586C30.978 29.4 28.7459 30.9568 25.7486 30.9568C24.5808 31.0312 23.4163 30.7661 22.3958 30.1933C21.3753 29.6206 20.5424 28.7648 19.9975 27.7292L22.5594 26.2371ZM11.4109 26.5106C11.9063 27.3898 12.3573 28.1334 13.4415 28.1334C14.4778 28.1334 15.1327 27.728 15.1327 26.1508V15.4197H18.2883V26.1928C18.2883 29.4599 16.3693 30.9472 13.5759 30.9472C12.5884 31.0012 11.6078 30.7551 10.7629 30.2413C9.91793 29.7275 9.24822 28.9701 8.8418 28.0686L11.4109 26.5106Z" fill="black"/>
</svg>
