<svg width="24" height="24" viewBox="0 0 24 24" fill="none" xmlns="http://www.w3.org/2000/svg">
<path d="M1 12C1 18.0753 5.9247 23 12 23C18.0753 23 23 18.0753 23 12C23 5.9247 18.0753 1 12 1C5.9247 1 1 5.9247 1 12Z" stroke="white" stroke-width="1.65" stroke-linecap="round" stroke-linejoin="round"/>
<path d="M13.1004 1.05499C13.1004 1.05499 16.4004 5.39999 16.4004 12C16.4004 18.6 13.1004 22.945 13.1004 22.945M10.9004 22.945C10.9004 22.945 7.60036 18.6 7.60036 12C7.60036 5.39999 10.9004 1.05499 10.9004 1.05499M1.69336 15.85H22.3074M1.69336 8.14999H22.3074" stroke="white" stroke-width="1.65" stroke-linecap="round" stroke-linejoin="round"/>
</svg>
