<svg width="30" height="30" viewBox="0 0 30 30" fill="none" xmlns="http://www.w3.org/2000/svg">
<g clip-path="url(#clip0_2156_372)">
<path d="M29.4327 17.9643C29.2583 17.436 28.8013 17.0681 28.2104 16.9797C27.9318 16.9381 27.6126 16.9559 27.2351 17.0337C26.5769 17.1695 26.0886 17.2212 25.7323 17.2313C27.0773 14.9602 28.1711 12.3704 28.8007 9.93254C29.8188 5.99069 29.2748 4.19491 28.639 3.38258C26.9564 1.23268 24.5016 0.0776406 21.5399 0.0422343C19.9601 0.0229524 18.5731 0.33489 17.8496 0.559152C17.176 0.44037 16.4516 0.373992 15.6915 0.361697C14.267 0.338988 13.0083 0.649516 11.9327 1.28777C11.3371 1.08648 10.3815 0.802629 9.2779 0.621432C6.68216 0.195281 4.59017 0.527374 3.05997 1.60837C1.20702 2.91726 0.348003 5.19133 0.506894 8.36747C0.557283 9.37591 1.12143 12.444 2.00961 15.3539C2.52008 17.0263 3.06441 18.4152 3.62748 19.4822C4.42597 20.9953 5.28036 21.8863 6.23955 22.2063C6.77723 22.3855 7.75402 22.5108 8.78148 21.6553C8.91168 21.8129 9.08535 21.9697 9.316 22.1152C9.60879 22.2999 9.96688 22.4508 10.3244 22.5402C11.6132 22.8624 12.8204 22.7818 13.8503 22.3302C13.8566 22.5134 13.8615 22.6884 13.8657 22.8395C13.8725 23.0847 13.8792 23.325 13.8882 23.5497C13.9492 25.0696 14.0526 26.2513 14.359 27.078C14.3758 27.1236 14.3984 27.1929 14.4224 27.2663C14.5751 27.7343 14.8308 28.5177 15.4809 29.1313C16.1543 29.7668 16.9687 29.9617 17.7146 29.9617C18.0887 29.9617 18.4456 29.9126 18.7586 29.8455C19.8747 29.6064 21.142 29.242 22.0588 27.9366C22.9256 26.7025 23.347 24.8437 23.4232 21.9149C23.4331 21.8321 23.4422 21.7531 23.451 21.6777C23.4569 21.6268 23.463 21.5748 23.4691 21.5229L23.6733 21.5409L23.7259 21.5444C24.8626 21.5962 26.2523 21.3552 27.1059 20.9587C27.7803 20.6457 29.9415 19.5048 29.4327 17.9643Z" fill="black"/>
<path d="M27.4893 18.2639C24.1097 18.961 23.8774 17.8168 23.8774 17.8168C27.4457 12.5221 28.9373 5.80132 27.65 4.15644C24.1383 -0.330479 18.0593 1.79154 17.9579 1.84664L17.9252 1.85248C17.2575 1.71388 16.5103 1.63131 15.6705 1.6176C14.1413 1.59254 12.9814 2.01849 12.1012 2.68597C12.1012 2.68597 1.25685 -1.78146 1.7612 8.30462C1.8685 10.4504 4.83664 24.5402 8.37693 20.2844C9.67091 18.7282 10.9211 17.4124 10.9211 17.4124C11.5421 17.8249 12.2855 18.0354 13.0649 17.9598L13.1254 17.9084C13.1066 18.1016 13.1152 18.2906 13.1497 18.5143C12.2376 19.5333 12.5056 19.7122 10.6824 20.0875C8.83762 20.4677 9.92137 21.1446 10.629 21.3215C11.4868 21.536 13.4713 21.8399 14.8123 19.9627L14.7588 20.1769C15.1161 20.4631 15.3671 22.0387 15.325 23.4669C15.283 24.8952 15.2549 25.8757 15.5365 26.6416C15.818 27.4075 16.0987 29.1308 18.4954 28.6173C20.4981 28.1881 21.5359 27.0759 21.6803 25.2207C21.7827 23.9018 22.0146 24.0968 22.0292 22.9177L22.2152 22.3594C22.4297 20.5716 22.2493 19.9948 23.4831 20.2631L23.783 20.2894C24.6911 20.3307 25.8796 20.1433 26.5772 19.8191C28.0793 19.122 28.9702 17.9581 27.4891 18.2639H27.4893Z" fill="#336791"/>
<path d="M12.7358 9.26423C12.4313 9.22183 12.1554 9.26107 12.0159 9.36668C11.9373 9.42614 11.9131 9.49501 11.9066 9.54244C11.889 9.66801 11.977 9.80681 12.0311 9.87843C12.184 10.0811 12.4074 10.2205 12.6286 10.2512C12.6606 10.2556 12.6925 10.2578 12.7242 10.2578C13.093 10.2578 13.4283 9.9706 13.4579 9.75864C13.4948 9.49319 13.1094 9.31623 12.7358 9.26423Z" fill="white"/>
<path d="M22.8253 9.27262C22.7963 9.06455 22.4259 9.00522 22.0745 9.05407C21.7237 9.10298 21.3834 9.26133 21.4118 9.46987C21.4347 9.63205 21.7274 9.90892 22.0741 9.90885C22.1033 9.90885 22.1328 9.90691 22.1626 9.90274C22.394 9.87069 22.5638 9.72376 22.6444 9.63904C22.7673 9.51005 22.8383 9.36614 22.8253 9.27262Z" fill="white"/>
<path d="M28.6131 18.1847C28.4843 17.795 28.0695 17.6696 27.3804 17.8119C25.3344 18.2342 24.6017 17.9417 24.361 17.7645C25.9514 15.3417 27.2597 12.4132 27.9655 9.68073C28.2999 8.38642 28.4845 7.18442 28.4996 6.20473C28.5163 5.12924 28.3332 4.33909 27.9554 3.85637C26.4324 1.9103 24.1972 0.866452 21.4915 0.837764C19.6314 0.81687 18.0599 1.29294 17.7552 1.42677C17.1136 1.26721 16.4141 1.16925 15.6527 1.15676C14.2563 1.13418 13.0493 1.46849 12.0499 2.14988C11.6158 1.98837 10.494 1.60326 9.12216 1.38229C6.75028 1.00035 4.86555 1.28971 3.52051 2.24259C1.91561 3.37962 1.1747 5.41209 1.31827 8.28342C1.36658 9.24954 1.91695 12.2213 2.78565 15.0674C3.92906 18.8133 5.17191 20.9339 6.47972 21.37C6.63277 21.4211 6.80933 21.4568 7.0039 21.4568C7.48098 21.4568 8.06582 21.2418 8.67437 20.5102C9.68517 19.2942 10.6289 18.2752 10.9768 17.9049C11.4909 18.1809 12.0556 18.335 12.6333 18.3504C12.6343 18.3655 12.6358 18.3807 12.6372 18.3957C12.5213 18.5332 12.4262 18.6536 12.3452 18.7565C11.945 19.2645 11.8617 19.3703 10.5733 19.6356C10.2069 19.7112 9.23348 19.9118 9.21931 20.5941C9.20379 21.3395 10.3698 21.6525 10.5027 21.6857C10.9656 21.8016 11.4116 21.8588 11.837 21.8588C12.8715 21.8587 13.7817 21.5188 14.5093 20.861C14.4868 23.5185 14.5977 26.1371 14.9168 26.935C15.178 27.5881 15.8165 29.1844 17.8332 29.1843C18.129 29.1843 18.4548 29.1499 18.8131 29.0731C20.9177 28.6218 21.8316 27.6916 22.1852 25.6409C22.3744 24.5449 22.6991 21.9277 22.8517 20.5238C23.174 20.6244 23.5889 20.6704 24.0375 20.6703C24.9729 20.6703 26.0523 20.4716 26.7293 20.1574C27.4897 19.8042 28.862 18.9375 28.6131 18.1847ZM23.6011 8.69822C23.5941 9.11268 23.5371 9.48892 23.4766 9.88168C23.4116 10.3041 23.3443 10.7408 23.3273 11.2709C23.3106 11.7868 23.375 12.3232 23.4374 12.8419C23.5633 13.8896 23.6925 14.9682 23.1923 16.0326C23.1146 15.8945 23.0395 15.7439 22.9707 15.577C22.9086 15.4264 22.7736 15.1843 22.5868 14.8492C21.8595 13.5452 20.1567 10.4914 21.0284 9.24524C21.288 8.87425 21.947 8.49297 23.6011 8.69822ZM21.5961 1.67703C24.0204 1.73058 25.938 2.6375 27.2958 4.37248C28.3372 5.70327 27.1905 11.7586 23.8708 16.9825C23.8381 16.9409 23.8047 16.8988 23.7701 16.8557C23.7564 16.8384 23.7423 16.8209 23.7281 16.8032C24.586 15.3864 24.4182 13.9848 24.2689 12.742C24.2076 12.232 24.1497 11.7503 24.1644 11.2979C24.1796 10.8182 24.243 10.4069 24.3043 10.0092C24.3798 9.51902 24.4564 9.01191 24.4353 8.41403C24.4511 8.35135 24.4574 8.27724 24.4492 8.1893C24.3952 7.61595 23.7406 5.90025 22.4065 4.34715C21.6768 3.4978 20.6125 2.54721 19.1595 1.90607C19.7845 1.77653 20.6392 1.65574 21.5961 1.67703ZM8.03041 19.9747C7.35998 20.7808 6.89694 20.6264 6.7447 20.5756C5.75259 20.2447 4.60151 18.1479 3.58662 14.8229C2.70845 11.9459 2.19523 9.05282 2.15465 8.24157C2.0264 5.67593 2.64832 3.88781 4.00323 2.92693C6.20823 1.36321 9.83351 2.29916 11.2902 2.77389C11.2692 2.79451 11.2475 2.81386 11.2267 2.83482C8.83636 5.24897 8.89306 9.37356 8.8989 9.62564C8.8987 9.72292 8.90683 9.86065 8.91805 10.0501C8.95917 10.7438 9.03569 12.0349 8.83125 13.4971C8.64119 14.8559 9.06001 16.1858 9.98017 17.1459C10.0754 17.2452 10.1749 17.3386 10.2776 17.4264C9.86798 17.865 8.97785 18.835 8.03041 19.9747ZM10.5848 16.5664C9.84318 15.7926 9.50639 14.7163 9.66064 13.6131C9.87657 12.0685 9.79683 10.7232 9.75403 10.0005C9.74805 9.89942 9.74274 9.8108 9.73959 9.74086C10.0888 9.43127 11.7071 8.56412 12.8611 8.82856C13.3878 8.94922 13.7086 9.30779 13.8421 9.92468C14.5326 13.1182 13.9335 14.4492 13.4521 15.5188C13.3529 15.7392 13.2592 15.9474 13.1791 16.163L13.1171 16.3295C12.96 16.7507 12.8139 17.1422 12.7233 17.5141C11.935 17.5117 11.168 17.175 10.5848 16.5664ZM10.7058 20.8733C10.4757 20.8158 10.2686 20.7159 10.1471 20.633C10.2486 20.5853 10.4292 20.5204 10.7423 20.4559C12.2579 20.1438 12.4919 19.9236 13.0031 19.2746C13.1203 19.1259 13.2531 18.9572 13.4371 18.7517L13.4373 18.7514C13.7113 18.4447 13.8366 18.4967 14.0639 18.5909C14.2481 18.6672 14.4275 18.898 14.5003 19.1521C14.5347 19.2721 14.5734 19.5 14.4469 19.6771C13.3791 21.1721 11.8232 21.1529 10.7058 20.8733ZM18.6375 28.2542C16.7834 28.6515 16.127 27.7055 15.6944 26.624C15.4151 25.9258 15.2779 22.7773 15.3753 19.3004C15.3766 19.2541 15.37 19.2094 15.3572 19.1675C15.3461 19.0864 15.3291 19.0043 15.3054 18.9218C15.1606 18.4159 14.8078 17.9927 14.3845 17.8172C14.2164 17.7476 13.9076 17.6197 13.5367 17.7146C13.6159 17.3887 13.7531 17.0207 13.9017 16.6222L13.9642 16.4545C14.0344 16.2655 14.1225 16.0697 14.2158 15.8625C14.7195 14.7434 15.4094 13.2105 14.6607 9.74765C14.3802 8.45065 13.4436 7.8173 12.0238 7.96437C11.1726 8.05244 10.3939 8.39589 10.0055 8.59281C9.92199 8.63514 9.8456 8.67598 9.77425 8.71583C9.88262 7.40895 10.2922 4.96672 11.8243 3.42155C12.7889 2.44872 14.0736 1.96828 15.6389 1.99414C18.723 2.04467 20.7007 3.6274 21.8168 4.9463C22.7786 6.08286 23.2994 7.22769 23.5072 7.84511C21.9442 7.68622 20.8811 7.9948 20.3422 8.76521C19.1698 10.4411 20.9836 13.6939 21.8553 15.2571C22.0151 15.5437 22.1531 15.7912 22.1965 15.8964C22.4804 16.5844 22.8479 17.0437 23.1162 17.379C23.1985 17.4817 23.2783 17.5814 23.3389 17.6684C22.8656 17.8049 22.0152 18.1202 22.0927 19.6964C22.0302 20.4874 21.5857 24.1903 21.36 25.4986C21.0619 27.227 20.4259 27.8708 18.6375 28.2542ZM26.3766 19.3978C25.8926 19.6225 25.0825 19.7911 24.3129 19.8272C23.4628 19.867 23.0302 19.732 22.9284 19.649C22.8805 18.6667 23.2462 18.5641 23.6331 18.4554C23.694 18.4383 23.7533 18.4217 23.8105 18.4017C23.8461 18.4306 23.8851 18.4594 23.9278 18.4875C24.611 18.9385 25.8295 18.9871 27.5498 18.6321C27.5561 18.6307 27.5624 18.6295 27.5687 18.6282C27.3367 18.8452 26.9396 19.1363 26.3766 19.3978Z" fill="white"/>
</g>
<defs>
<clipPath id="clip0_2156_372">
<rect width="30" height="30" fill="white"/>
</clipPath>
</defs>
</svg>
