<svg width="30" height="30" viewBox="0 0 30 30" fill="none" xmlns="http://www.w3.org/2000/svg">
<g clip-path="url(#clip0_2156_334)">
<path d="M20.7868 20.5937C21.8939 20.4791 22.7338 19.5247 22.6956 18.3793C22.6575 17.2341 21.703 16.3178 20.5577 16.3178H20.4814C19.2978 16.356 18.3817 17.3486 18.4199 18.532C18.4581 19.1047 18.6871 19.601 19.0307 19.9446C17.7327 22.5026 15.7475 24.3732 12.7698 25.9385C10.7464 27.0075 8.6468 27.3893 6.54715 27.1221C4.82918 26.893 3.49301 26.1295 2.65301 24.8695C1.43144 22.9989 1.31695 20.9754 2.34773 18.952C3.07312 17.5012 4.21828 16.4323 4.94367 15.8978C4.79098 15.4015 4.56187 14.5616 4.44738 13.9508C-1.0882 17.9595 -0.515509 23.3807 1.16426 25.9385C2.42402 27.8475 4.98187 29.031 7.80691 29.031C8.57039 29.031 9.33387 28.9546 10.0975 28.7638C14.9841 27.8093 18.6872 24.9077 20.7868 20.5937ZM27.5059 15.8597C24.6045 12.4618 20.3287 10.5912 15.4421 10.5912H14.8314C14.4878 9.90398 13.7624 9.44578 12.9607 9.44578H12.8843C11.7009 9.48398 10.7848 10.4766 10.8229 11.6602C10.8611 12.8054 11.8154 13.7217 12.9607 13.7217H13.037C13.8769 13.6835 14.6023 13.149 14.9077 12.4236H15.5948C18.4963 12.4236 21.2449 13.2635 23.7265 14.9052C25.6352 16.1651 27.0096 17.8068 27.7731 19.7919C28.4221 21.3954 28.3839 22.9607 27.6967 24.297C26.6278 26.3203 24.8336 27.4275 22.4666 27.4275C20.9395 27.4275 19.4889 26.9693 18.7253 26.6257C18.3054 27.0075 17.5418 27.6183 17.0073 28.0002C18.649 28.7637 20.3287 29.1837 21.9321 29.1837C25.597 29.1837 28.3076 27.1602 29.3384 25.1368C30.4454 22.9225 30.369 19.1047 27.5059 15.8597ZM8.1123 21.2426C8.15051 22.388 9.10488 23.3041 10.2502 23.3041H10.3266C11.51 23.2661 12.4262 22.2734 12.388 21.0899C12.3499 19.9445 11.3954 19.0283 10.2502 19.0283H10.1739C10.0975 19.0283 9.98285 19.0283 9.90668 19.0664C8.3414 16.4704 7.69242 13.6453 7.92152 10.5911C8.0741 8.30039 8.83769 6.31512 10.1739 4.67344C11.2809 3.26086 13.4188 2.57367 14.8696 2.53559C18.9162 2.45918 20.634 7.49859 20.7486 9.52207C21.2449 9.63656 22.0848 9.90387 22.6575 10.0948C22.1993 3.91008 18.3817 0.703125 14.7169 0.703125C11.2809 0.703125 8.1123 3.18469 6.85242 6.84973C5.09637 11.7364 6.24164 16.4323 8.37949 20.1355C8.18871 20.4027 8.0741 20.8226 8.1123 21.2426Z" fill="#17F381"/>
</g>
<defs>
<clipPath id="clip0_2156_334">
<rect width="30" height="30" fill="white"/>
</clipPath>
</defs>
</svg>
