<svg width="32" height="41" viewBox="0 0 32 41" fill="none" xmlns="http://www.w3.org/2000/svg">
<path d="M15.9022 21.1474C16.9955 21.1474 17.9317 20.7431 18.7109 19.9346C19.4902 19.1261 19.8791 18.1553 19.8778 17.0222C19.8778 15.8878 19.4882 14.9163 18.709 14.1078C17.9297 13.2992 16.9942 12.8957 15.9022 12.897C14.8089 12.897 13.8727 13.3013 13.0935 14.1098C12.3143 14.9184 11.9253 15.8892 11.9267 17.0222C11.9267 18.1566 12.3163 19.1281 13.0955 19.9367C13.8747 20.7452 14.8103 21.1488 15.9022 21.1474ZM15.9022 40.9999C15.6372 40.9999 15.3721 40.9483 15.1071 40.8452C14.8421 40.742 14.6102 40.6045 14.4114 40.4326C9.57446 35.9981 5.96333 31.8811 3.578 28.0818C1.19267 24.2825 0 20.7335 0 17.4347C0 12.2783 1.59884 8.17026 4.79651 5.11075C7.99418 2.05124 11.6961 0.521484 15.9022 0.521484C20.1097 0.521484 23.8122 2.05124 27.0099 5.11075C30.2076 8.17026 31.8058 12.2783 31.8044 17.4347C31.8044 20.7349 30.6118 24.2846 28.2264 28.0839C25.8411 31.8832 22.23 35.9994 17.393 40.4326C17.1943 40.6045 16.9624 40.742 16.6973 40.8452C16.4323 40.9483 16.1673 40.9999 15.9022 40.9999Z" fill="#F8F4F1"/>
</svg>
