<svg width="33" height="32" viewBox="0 0 33 32" fill="none" xmlns="http://www.w3.org/2000/svg">
<path d="M19.5711 2.21488C19.6142 2.05342 19.6888 1.90206 19.7905 1.76944C19.8922 1.63682 20.0191 1.52553 20.1638 1.44194C20.3085 1.35836 20.4683 1.30411 20.634 1.28229C20.7997 1.26048 20.9681 1.27152 21.1295 1.3148C23.4879 1.93014 25.6397 3.16305 27.3631 4.88653C29.0866 6.61002 30.3195 8.76178 30.9349 11.1202C30.9781 11.2816 30.9892 11.45 30.9674 11.6157C30.9456 11.7814 30.8913 11.9412 30.8077 12.0859C30.7241 12.2306 30.6129 12.3575 30.4802 12.4592C30.3476 12.5609 30.1962 12.6355 30.0348 12.6786C29.9273 12.7069 29.8167 12.7213 29.7056 12.7216C29.4255 12.7217 29.1531 12.6293 28.9309 12.4588C28.7086 12.2883 28.5488 12.0492 28.4764 11.7786C27.9748 9.853 26.9686 8.09608 25.5618 6.68892C24.1549 5.28176 22.3982 4.2753 20.4727 3.77331C20.3111 3.7303 20.1596 3.65585 20.0268 3.55422C19.894 3.45259 19.7825 3.32577 19.6988 3.18103C19.615 3.03629 19.5607 2.87645 19.5387 2.71067C19.5168 2.54489 19.5278 2.37641 19.5711 2.21488ZM19.2005 8.86207C21.3935 9.44728 22.8024 10.8578 23.3876 13.0508C23.4601 13.3213 23.6199 13.5605 23.8421 13.731C24.0644 13.9015 24.3367 13.9938 24.6169 13.9938C24.728 13.9935 24.8386 13.9791 24.946 13.9508C25.1075 13.9076 25.2589 13.8331 25.3915 13.7314C25.5241 13.6297 25.6354 13.5028 25.719 13.3581C25.8026 13.2134 25.8568 13.0536 25.8786 12.8879C25.9004 12.7222 25.8894 12.5538 25.8461 12.3924C25.0319 9.3455 22.9042 7.21776 19.8573 6.40356C19.6959 6.36044 19.5275 6.34953 19.3619 6.37147C19.1962 6.3934 19.0365 6.44775 18.8919 6.5314C18.7473 6.61505 18.6205 6.72638 18.5189 6.85901C18.4173 6.99165 18.3428 7.143 18.2997 7.30443C18.2565 7.46586 18.2456 7.6342 18.2676 7.79984C18.2895 7.96549 18.3438 8.12519 18.4275 8.26983C18.5112 8.41447 18.6225 8.54121 18.7551 8.64283C18.8878 8.74445 19.0391 8.81894 19.2005 8.86207ZM30.7186 21.382L23.227 18.025L23.2063 18.0155C22.8174 17.8491 22.3932 17.7824 21.9719 17.8212C21.5507 17.8601 21.1459 18.0034 20.7939 18.2381C20.7525 18.2655 20.7127 18.2952 20.6747 18.3272L16.8041 21.6269C14.3519 20.4358 11.8203 17.9232 10.6292 15.5029L13.9337 11.5734C13.9655 11.5337 13.9957 11.4939 14.0243 11.451C14.254 11.1 14.3933 10.6977 14.43 10.2799C14.4666 9.86205 14.3994 9.44164 14.2342 9.05608V9.03699L10.8677 1.53267C10.6494 1.02898 10.2741 0.609399 9.79778 0.336552C9.32145 0.0637042 8.76964 -0.047773 8.22475 0.018761C6.06993 0.302311 4.09202 1.36055 2.66042 2.99584C1.22881 4.63112 0.441431 6.73161 0.445327 8.905C0.445327 21.5315 10.7182 31.8044 23.3447 31.8044C25.5181 31.8083 27.6186 31.0209 29.2538 29.5893C30.8891 28.1577 31.9474 26.1798 32.2309 24.025C32.2976 23.4803 32.1863 22.9286 31.9138 22.4523C31.6412 21.976 31.222 21.6005 30.7186 21.382Z" fill="#F8F4F1"/>
</svg>
