<svg width="27" height="26" viewBox="0 0 27 26" fill="none" xmlns="http://www.w3.org/2000/svg">
<path fill-rule="evenodd" clip-rule="evenodd" d="M5.58599 0.000474687C5.8575 0.00855502 6.11997 0.0993958 6.33787 0.260706C6.55578 0.422016 6.7186 0.646009 6.80432 0.902377L9.15216 7.9119H17.8462L20.1954 0.902377C20.2813 0.646186 20.4443 0.422425 20.6623 0.26135C20.8802 0.100275 21.1427 0.00965586 21.4141 0.00174538C21.6855 -0.0061651 21.9528 0.0690147 22.1799 0.217119C22.407 0.365224 22.5828 0.57911 22.6837 0.829856L26.5257 10.3816C27.0541 11.6953 27.1437 13.1432 26.781 14.5114C26.4184 15.8795 25.6228 17.0954 24.5119 17.9792L15.1576 25.4225C14.6876 25.7964 14.1037 26 13.5018 26C12.9 26 12.3161 25.7964 11.846 25.4225L2.48912 17.9779C1.37797 17.0942 0.582141 15.8785 0.21926 14.5103C-0.14362 13.1421 -0.0542953 11.6941 0.474031 10.3803L4.31728 0.831175C4.41761 0.580313 4.59296 0.366132 4.81961 0.217571C5.04627 0.0690111 5.31331 -0.00676761 5.58466 0.000474687H5.58599ZM5.43353 5.15081L2.93588 11.3613C2.61866 12.1493 2.56468 13.0178 2.78192 13.8387C2.99917 14.6595 3.47611 15.3891 4.14228 15.9196L13.5005 23.3642L22.8574 15.9196C23.5238 15.3892 24.001 14.6598 24.2185 13.8389C24.436 13.0181 24.3822 12.1494 24.0651 11.3613L21.5675 5.15081L20.0615 9.64714C19.9735 9.90981 19.8047 10.1383 19.5788 10.3002C19.353 10.462 19.0817 10.5491 18.8034 10.549H8.19764C7.91929 10.5491 7.64798 10.462 7.42217 10.3002C7.19635 10.1383 7.0275 9.90981 6.93954 9.64714L5.43353 5.15081Z" fill="#EB89F5"/>
</svg>
