<svg width="27" height="27" viewBox="0 0 27 27" fill="none" xmlns="http://www.w3.org/2000/svg">
<path d="M0.000149775 10.107C-0.00357092 10.3351 0.0621081 10.5588 0.188478 10.7487C0.314849 10.9385 0.495941 11.0855 0.707745 11.1701L11.5084 15.4909L15.8293 26.2924C15.9128 26.5013 16.057 26.6804 16.2433 26.8066C16.4296 26.9327 16.6494 27.0001 16.8744 27H16.8924C17.1203 26.9964 17.3417 26.9237 17.5273 26.7915C17.7129 26.6594 17.854 26.4739 17.9319 26.2598L26.9315 1.51148C27.0052 1.31014 27.0198 1.09195 26.9736 0.882599C26.9274 0.673245 26.8224 0.481447 26.6708 0.329793C26.5193 0.178139 26.3276 0.0729452 26.1182 0.0265997C25.9089 -0.0197457 25.6907 -0.0053124 25.4893 0.0681996L0.740368 9.06759C0.526139 9.1457 0.340669 9.28699 0.208494 9.4728C0.0763194 9.6586 0.00366771 9.88015 0.000149775 10.1081V10.107Z" fill="#356FFF"/>
</svg>
