<svg width="28" height="28" viewBox="0 0 28 28" fill="none" xmlns="http://www.w3.org/2000/svg">
<path d="M25.9008 6.48723C21.7189 -0.0026543 13.1551 -1.92558 6.5321 2.10055C0.0691935 6.12668 -2.01174 14.9 2.17014 21.3699L2.51029 21.8907L1.10966 27.1387L6.35202 25.7366L6.87226 26.0771C9.13328 27.2989 11.5944 28 14.0355 28C16.6567 28 19.2778 27.2989 21.5389 25.8968C28.0018 21.6904 29.9226 13.0973 25.9008 6.44717V6.48723ZM22.2392 19.9878C21.5389 21.0294 20.6585 21.7304 19.4379 21.9107C18.7376 21.9107 17.8572 22.2512 14.3756 20.8691C11.4143 19.467 8.95319 17.1835 7.21241 14.5595C6.17194 13.3377 5.6317 11.7553 5.47163 10.1728C5.47163 8.77071 5.99186 7.54885 6.87226 6.66751C7.21241 6.32699 7.57257 6.14671 7.91273 6.14671H8.79312C9.13328 6.14671 9.49344 6.14671 9.67352 6.84778C10.0137 7.72912 10.8941 9.83233 10.8941 10.0126C11.0741 10.1929 10.9941 11.5349 10.1938 12.2961C9.75355 12.7968 9.67352 12.8169 9.8536 13.1774C10.5539 14.219 11.4343 15.2806 12.2947 16.162C13.3352 17.0433 14.3956 17.7444 15.6162 18.2652C15.9563 18.4454 16.3165 18.4454 16.4966 18.0849C16.6767 17.7444 17.5371 16.863 17.8972 16.5025C18.2374 16.162 18.4175 16.162 18.7776 16.3222L21.5789 17.7243C21.919 17.9046 22.2792 18.0649 22.4593 18.2451C22.6394 18.7659 22.6394 19.467 22.2792 19.9878H22.2392Z" fill="#F8F4F1"/>
</svg>
