<svg width="33" height="33" viewBox="0 0 33 33" fill="none" xmlns="http://www.w3.org/2000/svg">
<path d="M22.7084 0.760742H9.98664C4.7246 0.760742 0.445312 5.04003 0.445312 10.3021V30.975C0.445313 31.3967 0.612853 31.8012 0.911078 32.0994C1.2093 32.3976 1.61378 32.5652 2.03553 32.5652H22.7084C27.9705 32.5652 32.2497 28.2859 32.2497 23.0238V10.3021C32.2497 5.04003 27.9705 0.760742 22.7084 0.760742ZM14.7573 17.4581C14.7573 18.0907 14.506 18.6974 14.0587 19.1448C13.6113 19.5921 13.0046 19.8434 12.372 19.8434C12.2352 19.8434 12.1048 19.8259 11.9744 19.8036C11.8424 19.8195 11.7136 19.8434 11.5769 19.8434C10.9478 19.8434 10.3329 19.6569 9.8099 19.3074C9.28688 18.9579 8.87924 18.4612 8.63852 17.8801C8.3978 17.2989 8.33481 16.6594 8.45753 16.0425C8.58025 15.4255 8.88316 14.8588 9.32795 14.414C9.77274 13.9693 10.3394 13.6663 10.9564 13.5436C11.5733 13.4209 12.2128 13.4839 12.794 13.7246C13.3751 13.9653 13.8718 14.373 14.2213 14.896C14.5708 15.419 14.7573 16.0339 14.7573 16.663C14.7573 16.7981 14.7335 16.9285 14.7176 17.0605C14.7382 17.1909 14.7573 17.3213 14.7573 17.4581ZM21.1182 19.8434C20.9814 19.8434 20.8526 19.8195 20.7206 19.8036C20.5895 19.8282 20.4565 19.8415 20.3231 19.8434C19.6905 19.8434 19.0837 19.5921 18.6364 19.1448C18.1891 18.6974 17.9377 18.0907 17.9377 17.4581C17.9377 17.3229 17.9568 17.1909 17.9775 17.0605C17.9616 16.9285 17.9377 16.7997 17.9377 16.663C17.9377 16.0339 18.1243 15.419 18.4738 14.896C18.8232 14.373 19.3199 13.9653 19.9011 13.7246C20.4822 13.4839 21.1217 13.4209 21.7387 13.5436C22.3556 13.6663 22.9223 13.9693 23.3671 14.414C23.8119 14.8588 24.1148 15.4255 24.2375 16.0425C24.3602 16.6594 24.2973 17.2989 24.0565 17.8801C23.8158 18.4612 23.4082 18.9579 22.8852 19.3074C22.3621 19.6569 21.7472 19.8434 21.1182 19.8434Z" fill="#F8F4F1"/>
</svg>
