<svg width="29" height="31" viewBox="0 0 29 31" fill="none" xmlns="http://www.w3.org/2000/svg">
<path d="M28.2271 12.4652C27.7003 11.8094 26.969 11.349 26.1497 11.1572C25.2393 10.9163 24.2721 11.0171 23.4309 11.4405C22.8498 11.7417 22.2858 12.0748 21.7415 12.4383V3.97447C21.7618 3.46101 21.6784 2.94874 21.4961 2.46825C21.3139 1.98776 21.0366 1.54891 20.6809 1.17792C20.3251 0.806936 19.8982 0.511422 19.4256 0.309036C18.953 0.10665 18.4444 0.00154463 17.9303 0C16.8999 0.0302893 15.9227 0.463811 15.2091 1.2072C14.4954 1.95058 14.1025 2.94435 14.1149 3.97447V5.67943C13.7947 5.60162 13.4667 5.56069 13.1372 5.55743C12.8869 5.55743 12.6375 5.57811 12.3913 5.6205L12.3096 5.63291C12.0903 5.67426 11.8751 5.7363 11.6682 5.81591C11.6278 5.83142 11.5906 5.85003 11.5513 5.86761C11.375 5.94226 11.2062 6.03367 11.0474 6.14057C11.0061 6.16745 10.9678 6.1995 10.9285 6.22846C10.7764 6.34012 10.6357 6.46626 10.5084 6.60584C10.495 6.62032 10.4784 6.62962 10.465 6.64513C10.4329 6.68132 10.4133 6.72371 10.3833 6.76093C10.1975 6.99642 10.0424 7.25456 9.92185 7.52915C9.19932 7.22433 8.39819 7.1584 7.6355 7.34097C7.5486 7.36062 7.46791 7.3937 7.38411 7.41955L7.24858 7.46091C7.17873 6.6068 6.81541 5.80314 6.22024 5.18624C5.87551 4.84695 5.46684 4.57939 5.01791 4.39907C4.56898 4.21875 4.0887 4.12925 3.60491 4.13576C2.62616 4.1703 1.70009 4.58749 1.026 5.29753C0.351905 6.00758 -0.0163229 6.95374 0.000555656 7.93239C0.000555656 8.6396 0.0202119 11.758 0.0409028 14.6861L0.0688358 18.6337C0.0688358 19.161 0.0750429 19.5983 0.0781465 19.9023V20.379C0.0324799 21.8598 0.310166 23.3329 0.891888 24.6956C1.47361 26.0584 2.3454 27.2781 3.44663 28.27C5.60373 30.0862 8.34851 31.0557 11.1685 30.9975C12.6808 30.9758 14.1737 30.6525 15.5593 30.0465C16.945 29.4406 18.1957 28.5641 19.2379 27.4687C20.4102 26.1611 21.4212 24.7178 22.2495 23.1696C22.595 22.5182 22.9933 21.8947 23.4403 21.3085C24.551 20.1127 25.7966 19.0496 27.1522 18.1405C27.3033 18.0371 27.4491 17.9275 27.5846 17.8303C27.971 17.5317 28.2927 17.1578 28.5301 16.7313C28.7675 16.3047 28.9157 15.8344 28.9658 15.3488C29.1002 14.3284 28.8356 13.2955 28.2271 12.4652ZM11.5419 9.99923C11.5409 9.76143 11.5523 9.52466 11.5771 9.28892C11.5771 9.23619 11.5926 9.1938 11.5988 9.14417C11.6164 9.01803 11.6371 8.89912 11.662 8.79263C11.6962 8.6479 11.7429 8.50641 11.8016 8.36975C11.8182 8.33252 11.8347 8.29117 11.8523 8.25808C11.9009 8.16296 11.962 8.07507 12.0334 7.99546L12.0499 7.97995C12.1033 7.92576 12.1631 7.8782 12.2279 7.8383C12.2909 7.79656 12.3586 7.76222 12.4296 7.73594C12.5165 7.70285 12.6065 7.67804 12.6986 7.6615H12.7213C12.8582 7.63952 12.9966 7.6288 13.1351 7.62944C13.3382 7.61389 13.542 7.64494 13.7312 7.7202C13.9204 7.79547 14.0898 7.91296 14.2266 8.0637C14.6187 8.6303 14.7956 9.31787 14.7273 10.0034V13.131C14.7273 15.5091 13.5293 15.5091 13.1351 15.5091C12.261 15.5091 11.8678 15.3499 11.6868 14.805C11.6744 14.7678 11.6609 14.7316 11.6516 14.6913C11.6263 14.5891 11.6073 14.4855 11.5947 14.3811C11.5947 14.3521 11.5864 14.3252 11.5833 14.2942C11.5669 14.1361 11.5562 13.9775 11.5513 13.8186V13.7835C11.5451 13.587 11.543 13.3699 11.543 13.131L11.5419 9.99923ZM9.48734 9.62288C9.48734 9.74799 9.47286 9.86689 9.47286 9.99923V13.4909C9.46327 14.0262 9.51078 14.561 9.61459 15.0862C9.36576 15.2962 9.06349 15.433 8.74146 15.4813C8.41943 15.5297 8.09028 15.4878 7.79068 15.3602C7.46384 15.2231 7.18496 14.9924 6.98923 14.697C6.79351 14.4017 6.68972 14.055 6.69096 13.7007V11.1045C6.69104 10.8514 6.74484 10.6012 6.84881 10.3704C6.95278 10.1396 7.10455 9.93343 7.2941 9.76556C7.38639 9.67973 7.48931 9.60607 7.60033 9.54637C7.64378 9.52155 7.6862 9.49571 7.73172 9.47399C7.80715 9.44042 7.88495 9.41243 7.96449 9.39024C8.00587 9.37473 8.04725 9.36233 8.08967 9.35095C8.32831 9.29513 8.57608 9.2905 8.81664 9.33737C9.0572 9.38424 9.28509 9.48155 9.48527 9.62288H9.48734ZM25.9511 16.4634V16.4603C24.465 17.4615 23.1005 18.6322 21.8853 19.9488C21.3474 20.6333 20.8715 21.3643 20.4618 22.1325C19.7153 23.5371 18.804 24.8477 17.7472 26.0367C16.8981 26.9316 15.8792 27.6486 14.7498 28.1457C13.6205 28.6427 12.4033 28.9099 11.1695 28.9317C8.85313 28.9893 6.5948 28.2033 4.81533 26.7201C3.93327 25.9207 3.23747 24.9376 2.777 23.8402C2.31653 22.7427 2.10262 21.5577 2.15034 20.3686V19.894C2.15034 19.589 2.14413 19.1527 2.14103 18.6244L2.1131 14.6778C2.09241 11.7414 2.07275 8.6365 2.07275 7.93859C2.05498 7.50774 2.20446 7.08669 2.48997 6.76339C2.77548 6.44009 3.17494 6.23954 3.60491 6.20364C3.81626 6.19591 4.02702 6.23053 4.22477 6.30547C4.42252 6.3804 4.60327 6.49414 4.75636 6.63996C4.9168 6.81312 5.04071 7.0168 5.12069 7.23884C5.20067 7.46089 5.2351 7.69676 5.22191 7.93239V9.05318C4.83269 9.66677 4.62536 10.378 4.62394 11.1045V13.71C4.62573 14.2771 4.75299 14.8367 4.99659 15.3488C5.24019 15.861 5.59411 16.3129 6.03299 16.6723C6.02683 16.7037 6.02268 16.7355 6.02058 16.7674C6.04018 17.0408 6.16757 17.2951 6.37475 17.4747C6.58193 17.6542 6.85195 17.7442 7.12547 17.7248C8.81724 17.5913 10.5151 17.5509 12.2113 17.6039C12.8786 17.6318 13.5231 17.6845 14.1304 17.761C14.0631 17.791 14.0011 17.8158 13.9328 17.8479C11.4995 18.9278 9.38482 20.6147 7.79172 22.7467C7.71245 22.857 7.65569 22.9818 7.62469 23.1141C7.5937 23.2463 7.58907 23.3834 7.61107 23.5174C7.6555 23.7881 7.8057 24.0301 8.02863 24.1901C8.25156 24.3501 8.52896 24.415 8.79981 24.3706C9.07065 24.3262 9.31276 24.1761 9.47286 23.9533C10.8563 22.1118 12.6893 20.6558 14.7966 19.7245C15.5024 19.3976 16.2305 19.1212 16.9754 18.8973C17.2485 18.8156 17.4658 18.7598 17.6116 18.7247L17.773 18.6874L17.8103 18.6792H17.8165C18.0252 18.6386 18.2164 18.5348 18.364 18.3818C18.5115 18.2289 18.6084 18.0341 18.6413 17.8242C18.6742 17.6142 18.6416 17.3992 18.5478 17.2085C18.4541 17.0177 18.3039 16.8605 18.1175 16.7581C17.4681 16.4182 16.7765 16.1654 16.0608 16.0064C16.5728 15.1368 16.8265 14.1395 16.7923 13.131V9.99923C16.8309 9.04791 16.619 8.10312 16.1777 7.25929V3.97447C16.1674 3.49212 16.344 3.02445 16.6706 2.66916C16.9972 2.31387 17.4485 2.09844 17.9303 2.06788C18.1732 2.06886 18.4133 2.12013 18.6354 2.21845C18.8575 2.31676 19.0568 2.45999 19.2208 2.63912C19.3847 2.81824 19.5098 3.02937 19.5881 3.2592C19.6663 3.48902 19.6961 3.73256 19.6755 3.97447V13.7969C19.6569 14.1929 19.7852 14.5806 20.0356 14.8877C20.1904 15.0595 20.3906 15.184 20.6132 15.2469C20.8358 15.3099 21.0717 15.3086 21.2936 15.2434C21.4932 15.1844 21.6795 15.0904 21.845 14.9652C21.9009 14.9249 21.9484 14.8867 21.9795 14.8619L22.0209 14.8236L22.0322 14.8143C22.7544 14.2124 23.5451 13.6977 24.3879 13.281C24.7795 13.0903 25.2273 13.0494 25.6469 13.1662C26.008 13.2437 26.3339 13.434 26.578 13.71C26.8656 14.1112 26.9877 14.6075 26.9205 15.0966C26.9051 15.3015 26.8492 15.5014 26.756 15.6845C26.6628 15.8677 26.534 16.0305 26.3773 16.1636L25.9511 16.4634Z" fill="#00D8FF"/>
</svg>
