<svg width="35" height="31" viewBox="0 0 35 31" fill="none" xmlns="http://www.w3.org/2000/svg">
<path d="M28.777 10.0477C28.4045 9.92051 28.0289 9.80265 27.6504 9.69426C27.714 9.43567 27.7725 9.1802 27.8245 8.92922C28.6773 4.80785 28.1198 1.48759 26.2154 0.394406C24.3895 -0.653596 21.4035 0.439184 18.3877 3.05197C18.0905 3.30994 17.7999 3.57533 17.5161 3.84791C17.3262 3.66666 17.1329 3.48892 16.9363 3.31479C13.7756 0.521119 10.6076 -0.656318 8.70529 0.440001C6.88105 1.49127 6.34088 4.61254 7.10869 8.51846C7.18508 8.9053 7.27133 9.29015 7.36736 9.67262C6.91893 9.79947 6.48621 9.93449 6.07209 10.0782C2.36646 11.3644 0 13.38 0 15.4707C0 17.6299 2.54051 19.7958 6.40008 21.109C6.71298 21.2151 7.02849 21.3133 7.34631 21.4037C7.24309 21.8157 7.15145 22.2304 7.0715 22.6474C6.33951 26.4856 6.91113 29.5331 8.73045 30.5777C10.6095 31.6564 13.7633 30.5477 16.8342 27.8753C17.0832 27.6581 17.3267 27.4346 17.5645 27.2053C17.8718 27.5004 18.1873 27.787 18.5106 28.0646C21.4854 30.6128 24.4232 31.6417 26.2407 30.5943C28.118 29.5124 28.7282 26.2385 27.936 22.2554C27.8736 21.9434 27.8036 21.6329 27.7262 21.3242C27.9476 21.2589 28.165 21.1917 28.3769 21.1217C32.3894 19.7984 35 17.6588 35 15.4707C35 13.3723 32.5571 11.3432 28.777 10.0477ZM27.9068 19.7089C27.7154 19.772 27.519 19.8328 27.3189 19.892C26.8759 18.496 26.2782 17.0116 25.5466 15.4779C26.2447 13.9807 26.8194 12.5153 27.25 11.1284C27.608 11.2316 27.9554 11.3403 28.2904 11.455C31.5293 12.5651 33.5048 14.2061 33.5048 15.4707C33.5048 16.8175 31.3712 18.5661 27.9068 19.7089ZM26.4693 22.5445C26.8196 24.3057 26.8695 25.8981 26.6375 27.1431C26.4291 28.2617 26.0099 29.0074 25.4915 29.3062C24.3886 29.9418 22.0298 29.1156 19.4858 26.9363C19.1851 26.6782 18.8916 26.4118 18.6058 26.1374C19.5921 25.0637 20.5777 23.8155 21.5396 22.4291C23.2317 22.2797 24.8302 22.0352 26.2798 21.7016C26.3496 21.9811 26.4128 22.2621 26.4693 22.5445ZM11.9323 29.1964C10.8546 29.5751 9.99633 29.586 9.47748 29.2882C8.37348 28.6544 7.91451 26.2074 8.54055 22.9251C8.61496 22.5372 8.70017 22.1515 8.79607 21.7683C10.2297 22.0841 11.8166 22.3111 13.5126 22.448C14.4811 23.8046 15.4952 25.0514 16.5171 26.1433C16.2999 26.3525 16.0776 26.5563 15.8504 26.7546C14.4923 27.9363 13.1316 28.7747 11.9323 29.1964ZM6.88379 19.7006C5.17713 19.1199 3.7677 18.3652 2.80164 17.5416C1.93348 16.8016 1.49529 16.0668 1.49529 15.4707C1.49529 14.2019 3.39527 12.5836 6.56428 11.4838C6.94887 11.3504 7.35137 11.2245 7.76904 11.1063C8.20709 12.5245 8.78158 14.0074 9.47488 15.5069C8.77256 17.0285 8.18986 18.535 7.74758 19.97C7.45748 19.8873 7.16946 19.7975 6.88379 19.7006ZM8.57609 8.2325C7.91834 4.88611 8.35516 2.36179 9.45451 1.72823C10.6254 1.05342 13.2146 2.01554 15.9436 4.42785C16.1215 4.58551 16.2966 4.74637 16.4687 4.91034C15.4518 5.9974 14.4471 7.235 13.4872 8.58352C11.8411 8.73541 10.2654 8.97931 8.81672 9.30609C8.72746 8.95035 8.64723 8.59228 8.57609 8.2325ZM23.6735 11.9438C23.3314 11.3554 22.9765 10.7744 22.6092 10.2013C23.7259 10.3418 24.7959 10.5284 25.8006 10.7566C25.499 11.7191 25.123 12.7253 24.6805 13.757C24.357 13.146 24.0213 12.5415 23.6735 11.9438ZM17.5168 5.97413C18.2064 6.71794 18.8971 7.54831 19.5765 8.44932C18.1984 8.38453 16.8179 8.38425 15.4398 8.4485C16.1198 7.5558 16.8164 6.72651 17.5168 5.97413ZM11.3206 11.954C10.9772 12.5468 10.6477 13.1476 10.3325 13.7557C9.89721 12.7278 9.52465 11.7169 9.22045 10.7408C10.219 10.5184 11.2839 10.3365 12.3936 10.1985C12.0221 10.7752 11.6644 11.3606 11.3206 11.954ZM12.4254 20.8487C11.279 20.7213 10.1981 20.5488 9.19981 20.3324C9.50879 19.3389 9.88955 18.3065 10.3343 17.2565C10.6508 17.8651 10.9816 18.4662 11.3265 19.0593C11.6811 19.6691 12.0483 20.2663 12.4254 20.8487ZM17.5581 25.072C16.8494 24.3109 16.1425 23.4688 15.4522 22.5632C16.1224 22.5893 16.8056 22.6026 17.5 22.6026C18.2134 22.6026 18.9186 22.5867 19.6127 22.556C18.9312 23.4779 18.2431 24.3212 17.5581 25.072ZM24.6946 17.2029C25.1624 18.2645 25.5567 19.2914 25.8698 20.2679C24.8551 20.4985 23.7594 20.6841 22.6049 20.822C22.9749 20.2382 23.3331 19.6471 23.6794 19.0491C24.0315 18.4413 24.37 17.8257 24.6946 17.2029ZM22.3843 18.3054C21.8541 19.2223 21.2941 20.1217 20.7052 21.0023C19.6385 21.0775 18.5694 21.1149 17.5 21.1144C16.4108 21.1144 15.3513 21.0806 14.3311 21.0147C13.7269 20.1361 13.1562 19.2351 12.6204 18.3136C12.0871 17.397 11.589 16.4605 11.1271 15.5062C11.5879 14.5517 12.0845 13.6147 12.616 12.6974L12.6159 12.6975C13.1471 11.78 13.7133 10.8828 14.3129 10.008C15.3538 9.92959 16.4212 9.88876 17.4999 9.88876C18.5835 9.88876 19.6524 9.93 20.6929 10.0089C21.2866 10.8824 21.8491 11.7765 22.3794 12.6895C22.9126 13.6048 23.4158 14.5372 23.8882 15.4851C23.4207 16.4427 22.9191 17.3834 22.3843 18.3054ZM25.4687 1.68386C26.6406 2.35675 27.0964 5.07026 26.3601 8.6287C26.313 8.85573 26.2603 9.08697 26.2028 9.32147C24.7506 8.98775 23.1738 8.73963 21.5229 8.58542C20.5613 7.22207 19.5647 5.98257 18.5644 4.90952C18.8265 4.65794 19.0949 4.41287 19.3694 4.17456C21.9533 1.93606 24.3683 1.0522 25.4687 1.68386ZM17.5 12.3593C19.2261 12.3593 20.6254 13.7523 20.6254 15.4707C20.6254 17.189 19.2261 18.582 17.5 18.582C15.7739 18.582 14.3746 17.189 14.3746 15.4707C14.3746 13.7523 15.7739 12.3593 17.5 12.3593Z" fill="#00D8FF"/>
</svg>
